<?xml version="1.0" encoding="UTF-8" standalone="no"?>
<!DOCTYPE svg PUBLIC "-//W3C//DTD SVG 1.1//EN" "http://www.w3.org/Graphics/SVG/1.1/DTD/svg11.dtd">
<svg width="100%" height="100%" viewBox="0 0 168 40" version="1.1" xmlns="http://www.w3.org/2000/svg" xmlns:xlink="http://www.w3.org/1999/xlink" xml:space="preserve" xmlns:serif="http://www.serif.com/" style="fill-rule:evenodd;clip-rule:evenodd;stroke-linecap:round;stroke-linejoin:round;stroke-miterlimit:1.5;">
    <g transform="matrix(24,0,0,24,54.0883,28.2697)">
        <path d="M0.361,-0C0.557,-0 0.671,-0.147 0.671,-0.343C0.671,-0.539 0.557,-0.689 0.361,-0.689L0.094,-0.689L0.094,-0L0.361,-0ZM0.187,-0.087L0.187,-0.602L0.361,-0.602C0.504,-0.602 0.578,-0.488 0.578,-0.343C0.578,-0.198 0.504,-0.087 0.361,-0.087L0.187,-0.087Z" style="fill:rgb(253,77,77);fill-rule:nonzero;"/>
    </g>
    <g transform="matrix(24,0,0,24,71.3443,28.2697)">
        <path d="M0.166,-0.467L0.076,-0.467L0.076,-0L0.166,-0L0.166,-0.467ZM0.058,-0.639C0.058,-0.604 0.086,-0.58 0.121,-0.58C0.156,-0.58 0.184,-0.604 0.184,-0.639C0.184,-0.674 0.156,-0.698 0.121,-0.698C0.086,-0.698 0.058,-0.674 0.058,-0.639Z" style="fill:rgb(253,77,77);fill-rule:nonzero;"/>
    </g>
    <g transform="matrix(24,0,0,24,77.1523,28.2697)">
        <path d="M0.467,-0L0.557,-0L0.557,-0.467L0.209,-0.467L0.209,-0.514C0.209,-0.574 0.22,-0.634 0.296,-0.634L0.347,-0.634L0.347,-0.721L0.296,-0.721C0.17,-0.721 0.117,-0.637 0.117,-0.514L0.117,-0.467L0.027,-0.467L0.027,-0.39L0.117,-0.39L0.117,-0L0.209,-0L0.209,-0.39L0.467,-0.39L0.467,-0ZM0.449,-0.639C0.449,-0.604 0.477,-0.58 0.512,-0.58C0.547,-0.58 0.575,-0.604 0.575,-0.639C0.575,-0.674 0.547,-0.698 0.512,-0.698C0.477,-0.698 0.449,-0.674 0.449,-0.639Z" style="fill:rgb(253,77,77);fill-rule:nonzero;"/>
    </g>
    <g transform="matrix(24,0,0,24,92.2963,28.2697)">
        <path d="M0.446,-0L0.536,-0L0.536,-0.467L0.446,-0.467L0.446,-0.397C0.414,-0.45 0.347,-0.477 0.282,-0.477C0.154,-0.477 0.045,-0.383 0.045,-0.234C0.045,-0.086 0.154,0.01 0.282,0.01C0.347,0.01 0.415,-0.02 0.446,-0.072L0.446,-0ZM0.445,-0.235C0.445,-0.136 0.373,-0.079 0.29,-0.079C0.206,-0.079 0.138,-0.143 0.138,-0.235C0.138,-0.327 0.206,-0.388 0.29,-0.388C0.366,-0.388 0.445,-0.335 0.445,-0.235Z" style="fill:rgb(253,77,77);fill-rule:nonzero;"/>
    </g>
    <g transform="matrix(24,0,0,24,113.224,28.2697)">
        <path d="M0.361,-0C0.557,-0 0.671,-0.147 0.671,-0.343C0.671,-0.539 0.557,-0.689 0.361,-0.689L0.094,-0.689L0.094,-0L0.361,-0ZM0.187,-0.087L0.187,-0.602L0.361,-0.602C0.504,-0.602 0.578,-0.488 0.578,-0.343C0.578,-0.198 0.504,-0.087 0.361,-0.087L0.187,-0.087Z" style="fill:rgb(253,77,77);fill-rule:nonzero;"/>
    </g>
    <g transform="matrix(24,0,0,24,130.6,28.2697)">
        <path d="M0.446,-0L0.536,-0L0.536,-0.467L0.446,-0.467L0.446,-0.397C0.414,-0.45 0.347,-0.477 0.282,-0.477C0.154,-0.477 0.045,-0.383 0.045,-0.234C0.045,-0.086 0.154,0.01 0.282,0.01C0.347,0.01 0.415,-0.02 0.446,-0.072L0.446,-0ZM0.445,-0.235C0.445,-0.136 0.373,-0.079 0.29,-0.079C0.206,-0.079 0.138,-0.143 0.138,-0.235C0.138,-0.327 0.206,-0.388 0.29,-0.388C0.366,-0.388 0.445,-0.335 0.445,-0.235Z" style="fill:rgb(253,77,77);fill-rule:nonzero;"/>
    </g>
    <g transform="matrix(24,0,0,24,145.288,28.2697)">
        <path d="M0.202,0.227L0.492,-0.467L0.395,-0.467L0.255,-0.129L0.115,-0.467L0.018,-0.467L0.205,-0.014L0.107,0.227L0.202,0.227Z" style="fill:rgb(253,77,77);fill-rule:nonzero;"/>
    </g>
    <g transform="matrix(2.1875,0,0,2.1875,-6.3125,-10.125)">
        <path d="M23,8.395C23,7.073 21.927,6 20.605,6L9.395,6C8.073,6 7,7.073 7,8.395L7,19.605C7,20.927 8.073,22 9.395,22L20.605,22C21.927,22 23,20.927 23,19.605L23,8.395Z" style="fill:rgb(253,77,77);"/>
    </g>
    <g transform="matrix(1.07692,0,0,1.07692,-0.999999,-1.53846)">
        <g transform="matrix(1.08333,0,0,1.08333,7.58333,2.66667)">
            <circle cx="17" cy="16" r="12" style="fill:white;fill-opacity:0;stroke:white;stroke-width:0.92px;"/>
        </g>
        <g transform="matrix(0.947695,0,0,0.947695,8.26153,6.46455)">
            <circle cx="17" cy="16" r="12" style="fill:white;fill-opacity:0;stroke:white;stroke-width:1.06px;"/>
        </g>
        <g transform="matrix(0.790275,0,0,0.790275,9.04862,10.8723)">
            <circle cx="17" cy="16" r="12" style="fill:white;fill-opacity:0;stroke:white;stroke-width:1.27px;"/>
        </g>
        <g transform="matrix(0.619921,0,0,0.619921,9.9004,15.6422)">
            <circle cx="17" cy="16" r="12" style="fill:white;fill-opacity:0;stroke:white;stroke-width:1.61px;"/>
        </g>
        <g transform="matrix(0.49311,0,0,0.49311,10.5345,19.1929)">
            <circle cx="17" cy="16" r="12" style="fill:white;fill-opacity:0;stroke:white;stroke-width:2.03px;"/>
        </g>
        <g transform="matrix(0.401771,0,0,0.401771,10.9911,21.7504)">
            <circle cx="17" cy="16" r="12" style="fill:white;fill-opacity:0;stroke:white;stroke-width:2.49px;"/>
        </g>
        <g transform="matrix(0.318378,0,0,0.318378,11.4081,24.0854)">
            <circle cx="17" cy="16" r="12" style="fill:white;fill-opacity:0;stroke:white;stroke-width:3.14px;"/>
        </g>
        <g transform="matrix(0.255684,0,0,0.255684,11.7216,25.8409)">
            <circle cx="17" cy="16" r="12" style="fill:white;fill-opacity:0;stroke:white;stroke-width:3.91px;"/>
        </g>
        <g transform="matrix(0.214017,0,0,0.214017,11.9299,27.0075)">
            <circle cx="17" cy="16" r="12" style="fill:white;fill-opacity:0;stroke:white;stroke-width:4.67px;"/>
        </g>
    </g>
</svg>
